<?xml version="1.0" encoding="utf-8"?>
<!-- Generator: Adobe Illustrator 27.4.1, SVG Export Plug-In . SVG Version: 6.00 Build 0)  -->
<svg version="1.1" id="Layer_1" xmlns="http://www.w3.org/2000/svg" xmlns:xlink="http://www.w3.org/1999/xlink" x="0px" y="0px"
	 viewBox="0 0 168 168" style="enable-background:new 0 0 168 168;" xml:space="preserve">
<style type="text/css">
	.st0{fill:#E20A17;}
	.st1{fill:#26A339;}
	.st2{fill:#A8A7A7;}
	.st3{fill:#FFFFFF;}
	.st4{fill:#1D1E1C;}
</style>
<g>
	<path class="st0" d="M89.7,29.3c2.2,0,6.1,0.1,11.2,0.4c-4-8.7-8-14.8-10.2-17.8c-0.3,0-0.6-0.1-1-0.1V29.3z"/>
	<path class="st1" d="M112.4,16.9c3.8,3.3,9,8.5,14,15.4c3,0.4,6.5,1,10.4,1.6C130,26.7,121.7,20.8,112.4,16.9z"/>
	<path class="st2" d="M85.4,156.1c2.2-2.6,6.6-8.4,10.9-17.2H84.7v17.3C85,156.2,85.2,156.1,85.4,156.1z"/>
	<g>
		<path class="st3" d="M150.5,57.2c-3.4-0.4-7.4-0.9-11.6-1.4c-1.8-5.7-4.3-11.2-7.4-16.5c3.8,0.6,7.3,1.2,10.4,1.9
			C145.6,46.2,148.4,51.6,150.5,57.2z"/>
		<path class="st2" d="M132.5,40c3.3,0.5,6.4,1.1,9.2,1.6c3.3,4.7,6,9.7,8,14.9c-3.6-0.4-7.1-0.8-10.4-1.2
			C137.6,50.1,135.4,45,132.5,40 M130.6,38.7c3.1,5.2,5.9,11,8,17.6c4.7,0.5,9,1.1,12.7,1.5c-2.2-6.1-5.2-11.8-9-17
			C139.4,40.2,135.5,39.5,130.6,38.7L130.6,38.7z"/>
	</g>
	<path class="st2" d="M133.6,112c-1.8,7.2-4.3,12.8-7.1,17.5c3.7-0.7,7.4-1.4,10.5-2.1c3.7-5.1,6.8-10.8,9-16.8
		C141.5,111.1,137,111.6,133.6,112z"/>
	<path class="st4" d="M134.7,61.7c-6.7-0.4-12.9-0.6-17-0.7c1.2,5.7,2,11.6,2.2,17.6h17C136.7,72.5,135.9,66.9,134.7,61.7z"/>
	<path class="st2" d="M136.9,89.7c-0.3,6-1,11.3-1.9,16c5.7-0.6,10-1.1,13.1-1.7c1.2-4.6,1.9-9.4,2.2-14.4L136.9,89.7L136.9,89.7z"
		/>
	<path class="st2" d="M131.3,134.4c-3.3,0.6-6.5,1.1-9.3,1.6c-5.1,6.3-10.7,10.6-15.7,15.4C115.8,147.6,124.3,141.7,131.3,134.4z"/>
	<path class="st2" d="M84.7,133.5h14.1c2.3-5.4,4.4-11.8,5.9-19h-20V133.5z"/>
	<g>
		<path class="st3" d="M132.3,55.2c-5-0.5-10.3-0.9-15.8-1.1c-1.6-5.7-3.6-11.5-6-17.3c4.7,0.5,9.3,1,13.8,1.6
			C127.6,43.5,130.3,49.2,132.3,55.2z"/>
		<path class="st2" d="M111.2,37.3c4.3,0.4,8.6,0.9,12.7,1.5c3.2,4.9,5.7,10.2,7.7,15.8c-4.7-0.4-9.6-0.8-14.7-1
			C115.4,48.2,113.5,42.8,111.2,37.3 M109.7,36.1c2.3,5.5,4.6,11.7,6.4,18.4c6.8,0.3,12.5,0.8,16.9,1.2c-2.2-6.9-5.2-12.8-8.5-17.9
			C120.2,37.2,115.2,36.7,109.7,36.1L109.7,36.1z"/>
	</g>
	<path class="st0" d="M89.7,54.1h19.5c-1.6-6.9-3.6-13.1-5.7-18.4c-4.4-0.3-9-0.4-13.8-0.5V54.1z"/>
	<path class="st0" d="M89.7,78.6h22.7c-0.2-6.3-0.9-12.2-1.8-17.7H89.7V78.6z"/>
	<path class="st1" d="M97.5,13c0,0,4.5,6.6,9.4,17c2.9,0.2,7.1,0.6,12.8,1.2C109.1,18.4,97.5,13,97.5,13z"/>
	<path class="st2" d="M128.1,112.7c-6.9,0.8-12.4,1.3-16.5,1.5c-1.8,7-4.1,13.2-6.5,18.7c5.9-0.8,10.7-1.5,14.4-2.1
		C122.8,125.6,125.8,119.7,128.1,112.7z"/>
	<path class="st2" d="M92.5,155.1c2-0.9,12.5-6.3,22.1-18c-5,0.5-9.6,1-12.4,1.4c-3.7,7.2-7.5,12.7-10,16.7
		C92.3,155.2,92.4,155.2,92.5,155.1z"/>
	<path class="st2" d="M84.7,107.1h21.4c0.8-5.3,1.3-11.1,1.4-17.2H84.7V107.1z"/>
	<path class="st2" d="M131.9,89.7h-17c-0.2,6.4-0.8,12.3-1.8,17.7c6.6-0.2,12.3-0.7,16.7-1.2C131,101.1,131.7,95.6,131.9,89.7z"/>
	<path class="st4" d="M140.2,62.3c1.1,5,1.8,10.3,1.9,16h13.2c-0.2-4.9-0.9-9.7-2.1-14.3C148.5,63.3,143.8,62.7,140.2,62.3z"/>
	<path class="st2" d="M58,132.9c-2.5-5.4-4.8-11.6-6.5-18.7c-4.1-0.3-9.5-0.7-16.5-1.5c2.2,7,5.3,13,8.6,18.1
		C47.3,131.3,52.1,132.1,58,132.9z"/>
	<path class="st2" d="M28,105.7c-0.9-4.7-1.5-10-1.9-16H12.7c0.2,4.9,1,9.7,2.2,14.4C18.1,104.5,22.3,105.1,28,105.7z"/>
	<path class="st2" d="M31.1,83.6h17c0.2-6,1-11.9,2.2-17.6c-4.1,0.1-10.3,0.3-17,0.7C32.1,71.9,31.3,77.5,31.1,83.6z"/>
	<path class="st2" d="M31.3,39c3.8-0.6,7.4-1.2,10.4-1.6c5-6.9,10.2-12.1,14-15.4C46.4,25.8,38.1,31.7,31.3,39z"/>
	<path class="st2" d="M29.5,61.3c2.1-6.6,4.9-12.4,8-17.6c-4.9,0.8-8.8,1.5-11.7,2.1c-3.7,5.2-6.8,10.9-9,17
		C20.4,62.4,24.8,61.9,29.5,61.3z"/>
	<path class="st2" d="M36.5,129.5c-2.8-4.7-5.2-10.3-7.1-17.5c-3.4-0.4-7.8-0.9-12.5-1.5c2.2,6.1,5.3,11.7,9,16.8
		C29.1,128.1,32.8,128.8,36.5,129.5z"/>
	<path class="st2" d="M77.4,16.8c-2.2,3-6.2,9.1-10.2,17.8c5.1-0.3,9-0.3,11.2-0.4V16.7C78,16.7,77.7,16.8,77.4,16.8z"/>
	<path class="st2" d="M56.7,151.4c-5-4.7-10.6-9.1-15.7-15.4c-2.7-0.5-6-1-9.3-1.6C38.7,141.7,47.2,147.6,56.7,151.4z"/>
	<path class="st2" d="M78.3,138.9H66.7c4.3,8.8,8.7,14.6,10.9,17.2c0.2,0,0.5,0,0.7,0.1V138.9z"/>
	<path class="st2" d="M26,83.4c0.1-5.7,0.7-11,1.9-16c-3.6,0.4-8.3,1-13,1.7c-1.2,4.6-1.9,9.4-2.1,14.3H26z"/>
	<path class="st2" d="M78.3,114.5h-20c1.6,7.2,3.7,13.6,5.9,19h14.1V114.5z"/>
	<path class="st2" d="M50,107.4c-1-5.5-1.7-11.4-1.8-17.7h-17c0.2,6,0.9,11.5,2.1,16.5C37.6,106.7,43.4,107.2,50,107.4z"/>
	<path class="st2" d="M70.6,155.1c0.1,0,0.2,0,0.3,0c-2.6-4-6.3-9.5-10-16.7c-2.8-0.3-7.4-0.8-12.4-1.4
		C58.1,148.9,68.6,154.2,70.6,155.1z"/>
	<path class="st2" d="M58.4,41.1c-5.5,0.5-10.5,1.1-14.8,1.7c-3.3,5.1-6.3,11-8.5,17.9c4.5-0.4,10.2-0.9,16.9-1.2
		C53.8,52.8,56,46.6,58.4,41.1z"/>
	<path class="st2" d="M78.3,89.8H55.6c0.1,6.2,0.6,11.9,1.4,17.2h21.4L78.3,89.8L78.3,89.8z"/>
	<path class="st2" d="M78.3,40.2c-4.8,0-9.4,0.2-13.8,0.5c-2.1,5.4-4.1,11.6-5.7,18.4h19.5V40.2z"/>
	<path class="st2" d="M48.3,36.3c5.6-0.7,9.9-1,12.8-1.2c5-10.4,9.4-17,9.4-17S59,23.4,48.3,36.3z"/>
	<path class="st2" d="M78.3,65.8H57.5c-1,5.5-1.6,11.5-1.8,17.7h22.7L78.3,65.8L78.3,65.8z"/>
</g>
</svg>
